<?xml version="1.0" encoding="utf-8"?>
<!-- Generator: Adobe Illustrator 26.5.0, SVG Export Plug-In . SVG Version: 6.00 Build 0)  -->
<svg version="1.1" id="Layer_1" xmlns="http://www.w3.org/2000/svg" xmlns:xlink="http://www.w3.org/1999/xlink" x="0px" y="0px"
	 viewBox="0 0 750.29 315.6" style="enable-background:new 0 0 750.29 315.6;" xml:space="preserve">
<style type="text/css">
	.st0{opacity:0.4;fill:#FFFFFF;}
	.st1{fill:none;stroke:#333333;stroke-width:6;stroke-miterlimit:10;}
	.st2{fill:none;stroke:#333333;stroke-width:6;stroke-linecap:round;stroke-miterlimit:10;}
	.st3{fill:#333333;}
	.st4{fill:#FFFFFF;}
	.st5{opacity:0.8;fill:#FFFFFF;}
	.st6{fill:none;stroke:#333333;stroke-width:4.3507;stroke-miterlimit:10;}
	.st7{fill:none;stroke:#333333;stroke-width:4.3507;stroke-linecap:round;stroke-miterlimit:10;}
	.st8{opacity:0.7;fill:#FFFFFF;}
	.st9{fill:none;stroke:#333333;stroke-width:5;stroke-miterlimit:10;}
	.st10{fill:#FDB858;}
	.st11{clip-path:url(#SVGID_00000181806123743313489770000002586698405534060468_);}
	.st12{fill:none;stroke:#FF00FF;stroke-miterlimit:10;}
	.st13{clip-path:url(#SVGID_00000013911414581812712500000010816511290105003923_);}
	.st14{clip-path:url(#SVGID_00000127727625777989661840000001782411524693119125_);}
</style>
<g>
	<g>
		<path class="st3" d="M48.74,88.84c3,0.01,5.6,0.81,7.89,2.39c0.96,0.7,3.07,2.79,6.37,9.04l23.06,42.67h54.79l-22.7-43.96
			c-1.1-2.19-3.12-5.12-6.2-8.95c-3.16-3.93-5.48-6.37-7.29-7.68c-0.62-0.45-1.32-0.9-2.09-1.34c2.08-0.83,3.93-1.73,5.56-2.72
			c6.02-3.64,10.83-8.46,14.28-14.34c3.48-5.91,5.24-12.98,5.24-21.01c0-9.21-2.3-17.19-6.85-23.7
			c-4.58-6.56-10.69-11.11-18.16-13.54C95.5,3.4,85.58,2.27,72.34,2.27H0v140.68h48.74V88.84z M48.74,36.56h14.41
			c8.64,0,11.85,1.62,12.99,2.59c1.87,1.58,2.78,3.9,2.78,7.1c0,2.09-0.6,3.89-1.83,5.48c-1.18,1.53-2.64,2.45-4.49,2.82l-0.09,0.02
			c-6.69,1.5-9.2,1.73-10.1,1.73H48.74V36.56z"/>
		<polygon class="st3" points="263.98,105.39 192.87,105.39 192.87,86.48 256.98,86.48 256.98,51.92 192.87,51.92 192.87,38.1 
			261.98,38.1 261.98,2.27 144.22,2.27 144.22,142.95 263.98,142.95 		"/>
		<path class="st3" d="M309.91,138.57c9.63,4.41,22.09,6.65,37.04,6.65c12.41,0,22.84-1.85,31.01-5.5
			c8.26-3.69,15.27-9.24,20.83-16.49c5.51-7.17,9.58-16.17,12.12-26.76l0.81-3.38l-43.25-13.07l-0.84,3.9
			c-1.67,7.75-4.33,13.66-7.9,17.57c-3.33,3.66-8.29,5.43-15.15,5.43c-7.03,0-12.28-2.25-16.06-6.87c-3.91-4.78-5.9-14.21-5.9-28.05
			c0-11.12,1.68-19.26,5.03-24.21c4.28-6.47,10.3-9.61,18.39-9.61c3.51,0,6.72,0.72,9.51,2.14c2.8,1.43,5.21,3.5,7.17,6.19
			c0.79,1.06,2.02,3.28,3.45,7.82l1.01,3.23l43.66-9.71l-1.29-3.87c-4.9-14.76-12.57-25.91-22.79-33.13
			C376.57,3.65,362.54,0,345.05,0c-22.38,0-40.01,6.34-52.4,18.86c-12.38,12.5-18.66,30.48-18.66,53.44
			c0,17.17,3.56,31.53,10.57,42.67C291.57,126.14,300.11,134.08,309.91,138.57z"/>
		<rect x="425.29" y="2.27" class="st3" width="48.65" height="140.68"/>
		<path class="st3" d="M544.69,93.48h18.87c17.5,0,30.81-4.16,39.57-12.36c8.83-8.27,13.31-19.79,13.31-34.24
			c0-14.08-4.13-25.16-12.28-32.95c-8.1-7.74-20.23-11.66-36.05-11.66h-72.16v140.68h48.74V93.48z M544.69,36.74h8.05
			c8.25,0,11.66,1.76,13.07,3.23c2.13,2.22,3.16,4.87,3.16,8.09c0,3.25-1.12,5.73-3.53,7.8c-1.73,1.48-5.61,3.25-14.33,3.25h-6.41
			V36.74z"/>
		<polygon class="st3" points="679.18,105.39 679.18,86.48 743.29,86.48 743.29,51.92 679.18,51.92 679.18,38.1 748.29,38.1 
			748.29,2.27 630.53,2.27 630.53,142.95 750.29,142.95 750.29,105.39 		"/>
		<path class="st3" d="M158.25,263.47L115,250.4l-0.84,3.91c-1.67,7.74-4.33,13.66-7.9,17.57c-3.33,3.66-8.29,5.44-15.15,5.44
			c-7.03,0-12.28-2.25-16.06-6.87c-3.91-4.78-5.9-14.21-5.9-28.05c0-11.13,1.68-19.26,5.03-24.21c4.28-6.47,10.3-9.61,18.39-9.61
			c3.51,0,6.71,0.72,9.51,2.14c2.84,1.44,5.18,3.46,7.17,6.19c0.79,1.06,2.02,3.28,3.45,7.82l1.01,3.23l43.66-9.71l-1.29-3.87
			c-4.9-14.76-12.57-25.91-22.79-33.13c-10.2-7.21-24.24-10.86-41.73-10.86c-22.38,0-40.01,6.34-52.4,18.86
			c-12.38,12.5-18.66,30.48-18.66,53.44c0,17.17,3.56,31.53,10.57,42.67c7.02,11.17,15.56,19.11,25.36,23.61
			c9.63,4.41,22.09,6.65,37.04,6.65c12.41,0,22.84-1.85,31.01-5.5c8.26-3.69,15.27-9.24,20.83-16.49
			c5.5-7.17,9.58-16.17,12.12-26.76L158.25,263.47z"/>
		<path class="st3" d="M208.05,172.64l-52.87,140.68h50.13l6.5-22.01h41.28l6.67,22.01h51.19l-52.86-140.68H208.05z M242.29,255.12
			h-19.32l9.61-31.63L242.29,255.12z"/>
		<path class="st3" d="M427.55,260.42c-3.16-3.93-5.48-6.37-7.29-7.68c-0.62-0.45-1.32-0.9-2.09-1.34c2.08-0.83,3.93-1.73,5.56-2.72
			c6.02-3.64,10.83-8.46,14.28-14.34c3.48-5.91,5.24-12.98,5.24-21.01c0-9.22-2.3-17.19-6.85-23.7
			c-4.57-6.56-10.68-11.11-18.16-13.54c-7.16-2.32-17.08-3.45-30.33-3.45h-72.34v140.68h48.74v-54.11c3,0.01,5.6,0.81,7.89,2.39
			c0.96,0.7,3.07,2.79,6.37,9.04l23.06,42.67h54.79l-22.7-43.96C432.64,267.17,430.62,264.24,427.55,260.42z M364.33,206.93h14.41
			c8.64,0,11.85,1.62,12.99,2.59c1.87,1.58,2.78,3.9,2.78,7.1c0,2.09-0.6,3.89-1.82,5.48c-1.18,1.53-2.65,2.45-4.49,2.82l-0.09,0.02
			c-6.69,1.5-9.2,1.73-10.1,1.73h-13.68V206.93z"/>
		<path class="st3" d="M575.86,193.05c-5.21-6.57-11.87-11.68-19.82-15.18c-7.86-3.47-18.2-5.22-30.72-5.22h-64.88v140.68h64.88
			c7.62,0,16.21-1.27,25.5-3.76c7.16-1.9,13.92-5.76,20.1-11.44c6.13-5.64,10.98-12.72,14.41-21.04c3.41-8.27,5.14-19.89,5.14-34.55
			c0-9.37-1.14-18.38-3.4-26.78C584.77,207.18,581,199.54,575.86,193.05z M509,210.2h6.59c9.52,0,16.3,2.21,20.15,6.57
			c3.97,4.5,5.99,13.44,5.99,26.57c0,10.11-0.94,17.41-2.79,21.68c-1.73,4-3.98,6.68-6.88,8.2c-2.12,1.11-6.74,2.44-16.66,2.44H509
			V210.2z"/>
		<path class="st3" d="M701.54,228.47c-5.76-2.93-13.9-5.77-24.71-8.58l45.14-2.64l-0.48-3.9c-1.82-14.83-7.71-25.86-17.49-32.79
			c-9.54-6.76-23.36-10.18-41.09-10.18c-14.33,0-25.85,1.86-34.26,5.54c-8.6,3.76-15.17,9.06-19.52,15.73
			c-4.35,6.67-6.55,13.88-6.55,21.43c0,11.49,4.34,21.09,12.9,28.51c8.24,7.21,21.42,12.77,40.28,17.01
			c13.57,2.98,18,5.58,19.42,6.87c2.24,2.01,3.33,4.15,3.33,6.54c0,2.54-1.15,4.77-3.5,6.81c-2.48,2.15-6.24,3.24-11.18,3.24
			c-6.75,0-11.75-2.19-15.28-6.68c-2.19-2.8-3.68-7.09-4.43-12.77l-0.45-3.41l-46.38,2.91l0.32,3.75
			c1.22,14.28,6.57,26.25,15.89,35.57c9.54,9.54,25.8,14.17,49.71,14.17c13.36,0,24.66-1.99,33.58-5.9
			c9.11-4,16.32-9.98,21.42-17.77c5.11-7.79,7.7-16.43,7.7-25.66c0-7.92-1.97-15.2-5.85-21.63
			C716.14,238.18,709.92,232.74,701.54,228.47z M661.93,216.37c-8.96-1.87-11.45-3.44-12.1-4.03l-0.09-0.08
			c-1.52-1.29-1.7-2.28-1.7-2.92c0-1.8,0.74-3.26,2.32-4.59c1.73-1.45,4.57-2.19,8.45-2.19c4.91,0,8.73,1.09,11.34,3.25
			c2.59,2.14,4.34,5.8,5.22,10.88l0.51,2.95C671.63,218.55,666.99,217.46,661.93,216.37z"/>
	</g>
</g>
</svg>
