<?xml version="1.0" encoding="utf-8"?>
<!-- Generator: Adobe Illustrator 26.5.0, SVG Export Plug-In . SVG Version: 6.00 Build 0)  -->
<svg version="1.1" id="Layer_1" xmlns="http://www.w3.org/2000/svg" xmlns:xlink="http://www.w3.org/1999/xlink" x="0px" y="0px"
	 viewBox="0 0 1660.12 698.3" style="enable-background:new 0 0 1660.12 698.3;" xml:space="preserve">
<style type="text/css">
	.st0{opacity:0.4;fill:#FFFFFF;}
	.st1{fill:none;stroke:#333333;stroke-width:6;stroke-miterlimit:10;}
	.st2{fill:none;stroke:#333333;stroke-width:6;stroke-linecap:round;stroke-miterlimit:10;}
	.st3{fill:#333333;}
	.st4{fill:#FFFFFF;}
	.st5{opacity:0.8;fill:#FFFFFF;}
	.st6{fill:none;stroke:#333333;stroke-width:4.3507;stroke-miterlimit:10;}
	.st7{fill:none;stroke:#333333;stroke-width:4.3507;stroke-linecap:round;stroke-miterlimit:10;}
	.st8{opacity:0.7;fill:#FFFFFF;}
	.st9{fill:none;stroke:#333333;stroke-width:5;stroke-miterlimit:10;}
	.st10{fill:#FDB858;}
	.st11{clip-path:url(#SVGID_00000089554479702652505970000007336936983813508792_);}
	.st12{fill:none;stroke:#FF00FF;stroke-miterlimit:10;}
	.st13{clip-path:url(#SVGID_00000025441949992772532300000017731110429225443462_);}
	.st14{clip-path:url(#SVGID_00000075855950171142594750000015168454688057904513_);}
</style>
<g>
	<path class="st4" d="M107.85,196.58c6.63,0.02,12.38,1.78,17.45,5.3c2.13,1.54,6.79,6.18,14.1,20.01l51.03,94.41h121.23
		l-50.23-97.26c-2.42-4.86-6.91-11.33-13.71-19.79c-6.99-8.69-12.13-14.1-16.13-16.98c-1.37-1-2.91-1.99-4.62-2.97
		c4.6-1.83,8.69-3.82,12.31-6.01c13.32-8.05,23.96-18.72,31.6-31.72c7.69-13.09,11.59-28.72,11.59-46.48
		c0-20.39-5.1-38.03-15.15-52.45c-10.12-14.51-23.64-24.58-40.19-29.95c-15.85-5.14-37.8-7.64-67.1-7.64H0V316.3h107.85V196.58z
		 M107.85,80.89h31.89c19.11,0,26.21,3.59,28.74,5.72c4.15,3.5,6.16,8.64,6.16,15.7c0,4.63-1.32,8.6-4.04,12.13
		c-2.6,3.38-5.85,5.42-9.92,6.23l-0.19,0.04c-14.81,3.33-20.36,3.83-22.36,3.83h-30.28V80.89z"/>
	<polygon class="st4" points="584.09,233.19 426.75,233.19 426.75,191.35 568.6,191.35 568.6,114.89 426.75,114.89 426.75,84.31 
		579.67,84.31 579.67,5.03 319.1,5.03 319.1,316.3 584.09,316.3 	"/>
	<path class="st4" d="M685.72,306.61c21.3,9.76,48.88,14.72,81.97,14.72c27.45,0,50.54-4.1,68.61-12.18
		c18.27-8.17,33.78-20.44,46.1-36.48c12.19-15.87,21.21-35.79,26.81-59.2l1.79-7.48l-95.69-28.92l-1.87,8.64
		c-3.7,17.14-9.58,30.22-17.48,38.89c-7.37,8.09-18.34,12.02-33.51,12.02c-15.55,0-27.17-4.97-35.54-15.2
		c-8.65-10.57-13.04-31.45-13.04-62.06c0-24.61,3.73-42.62,11.12-53.57c9.48-14.31,22.78-21.27,40.69-21.27
		c7.78,0,14.86,1.6,21.05,4.75c6.19,3.15,11.52,7.74,15.86,13.69c1.74,2.34,4.47,7.25,7.62,17.3l2.24,7.15l96.6-21.49l-2.84-8.57
		C895.36,64.67,878.4,40,855.79,24.03C833.22,8.08,802.16,0,763.46,0c-49.52,0-88.53,14.04-115.95,41.73
		c-27.4,27.67-41.29,67.45-41.29,118.23c0,37.99,7.87,69.75,23.38,94.42C645.14,279.09,664.03,296.67,685.72,306.61z"/>
	<rect x="941.02" y="5.03" class="st4" width="107.65" height="311.27"/>
	<path class="st4" d="M1205.21,206.84h41.74c38.72,0,68.18-9.2,87.56-27.35c19.53-18.29,29.44-43.78,29.44-75.77
		c0-31.15-9.14-55.68-27.17-72.9c-17.92-17.12-44.76-25.8-79.77-25.8h-159.65V316.3h107.85V206.84z M1205.21,81.29h17.8
		c18.24,0,25.8,3.89,28.92,7.14c4.7,4.91,6.99,10.77,6.99,17.9c0,7.19-2.49,12.67-7.82,17.25c-3.82,3.28-12.42,7.19-31.71,7.19
		h-14.18V81.29z"/>
	<polygon class="st4" points="1502.78,233.19 1502.78,191.35 1644.63,191.35 1644.63,114.89 1502.78,114.89 1502.78,84.31 
		1655.69,84.31 1655.69,5.03 1395.13,5.03 1395.13,316.3 1660.12,316.3 1660.12,233.19 	"/>
	<path class="st4" d="M350.16,582.96l-95.7-28.93l-1.86,8.64c-3.7,17.14-9.58,30.22-17.47,38.88c-7.37,8.09-18.33,12.03-33.51,12.03
		c-15.55,0-27.17-4.97-35.54-15.2c-8.65-10.57-13.04-31.45-13.04-62.06c0-24.62,3.73-42.62,11.12-53.57
		c9.48-14.31,22.78-21.27,40.69-21.27c7.78,0,14.86,1.6,21.05,4.74c6.28,3.2,11.46,7.66,15.86,13.69c1.74,2.35,4.47,7.25,7.62,17.3
		l2.24,7.14l96.6-21.49l-2.84-8.57c-10.84-32.66-27.81-57.32-50.42-73.3c-22.57-15.94-53.63-24.03-92.33-24.03
		c-49.52,0-88.53,14.04-115.95,41.73c-27.4,27.67-41.29,67.45-41.29,118.23c0,37.99,7.87,69.76,23.38,94.42
		c15.54,24.71,34.43,42.29,56.12,52.23c21.3,9.76,48.88,14.72,81.97,14.72c27.45,0,50.54-4.1,68.62-12.18
		c18.27-8.17,33.78-20.44,46.1-36.48c12.18-15.86,21.2-35.78,26.81-59.2L350.16,582.96z"/>
	<path class="st4" d="M460.34,382L343.35,693.27h110.93l14.38-48.69h91.34l14.76,48.69h113.26L571.05,382H460.34z M536.1,564.49
		h-42.75l21.26-69.98L536.1,564.49z"/>
	<path class="st4" d="M946,576.21c-6.99-8.69-12.12-14.1-16.12-16.99c-1.37-1-2.91-1.99-4.62-2.97c4.6-1.83,8.69-3.82,12.31-6.01
		c13.33-8.05,23.96-18.72,31.6-31.72c7.69-13.08,11.59-28.72,11.59-46.48c0-20.39-5.1-38.04-15.15-52.45
		c-10.12-14.51-23.64-24.59-40.19-29.95c-15.85-5.14-37.8-7.64-67.1-7.64H698.27v311.27h107.85V573.55
		c6.63,0.02,12.38,1.78,17.45,5.29c2.13,1.54,6.79,6.18,14.1,20.01l51.03,94.41h121.23l-50.23-97.26
		C957.28,591.15,952.8,584.67,946,576.21z M806.12,457.86h31.89c19.12,0,26.21,3.58,28.74,5.72c4.15,3.5,6.16,8.64,6.16,15.7
		c0,4.63-1.32,8.6-4.04,12.13c-2.61,3.38-5.85,5.42-9.93,6.24l-0.19,0.04c-14.81,3.33-20.36,3.83-22.36,3.83h-30.28V457.86z"/>
	<path class="st4" d="M1274.16,427.14c-11.52-14.54-26.27-25.84-43.85-33.58c-17.4-7.67-40.27-11.56-67.97-11.56h-143.56v311.27
		h143.56c16.87,0,35.86-2.8,56.42-8.32c15.84-4.21,30.8-12.73,44.47-25.32c13.56-12.49,24.29-28.14,31.89-46.55
		c7.55-18.29,11.38-44.01,11.38-76.45c0-20.74-2.53-40.68-7.52-59.26C1293.89,458.41,1285.54,441.51,1274.16,427.14z M1126.23,465.1
		h14.58c21.06,0,36.06,4.9,44.59,14.55c8.79,9.95,13.25,29.73,13.25,58.79c0,22.37-2.08,38.51-6.17,47.97
		c-3.83,8.85-8.81,14.79-15.22,18.15c-4.7,2.47-14.91,5.4-36.86,5.4h-14.18V465.1z"/>
	<path class="st4" d="M1552.25,505.52c-12.74-6.49-30.77-12.76-54.68-18.99l99.87-5.85l-1.06-8.62
		c-4.03-32.81-17.05-57.23-38.69-72.56c-21.1-14.95-51.69-22.53-90.93-22.53c-31.7,0-57.2,4.12-75.8,12.25
		c-19.04,8.33-33.57,20.04-43.2,34.81c-9.62,14.77-14.5,30.72-14.5,47.41c0,25.43,9.61,46.66,28.54,63.08
		c18.24,15.95,47.38,28.26,89.13,37.64c30.03,6.6,39.82,12.36,42.97,15.2c4.95,4.46,7.36,9.19,7.36,14.46
		c0,5.62-2.54,10.55-7.75,15.07c-5.48,4.75-13.8,7.16-24.74,7.16c-14.94,0-26.01-4.84-33.82-14.78c-4.84-6.18-8.14-15.69-9.81-28.25
		l-1-7.54l-102.63,6.43l0.71,8.31c2.7,31.6,14.53,58.08,35.15,78.71c21.1,21.1,57.08,31.36,109.99,31.36
		c29.57,0,54.57-4.39,74.3-13.06c20.16-8.86,36.11-22.08,47.4-39.31c11.3-17.24,17.03-36.34,17.03-56.78
		c0-17.52-4.35-33.63-12.94-47.87C1584.55,527,1570.78,514.97,1552.25,505.52z M1464.6,478.75c-19.84-4.13-25.33-7.62-26.77-8.92
		l-0.2-0.18c-3.37-2.86-3.76-5.05-3.76-6.46c0-3.99,1.63-7.22,5.13-10.15c3.83-3.21,10.12-4.83,18.7-4.83
		c10.87,0,19.32,2.42,25.09,7.19c5.73,4.73,9.61,12.82,11.54,24.07l1.12,6.52C1486.07,483.57,1475.8,481.16,1464.6,478.75z"/>
</g>
</svg>
